<svg xmlns="http://www.w3.org/2000/svg" xmlns:xlink="http://www.w3.org/1999/xlink" viewBox="0 0 256 256">
  <defs>
    <linearGradient id="未命名的渐变" x1="-431.805" y1="1341.746" x2="-431.805" y2="1342.746" gradientTransform="matrix(256, 0, 0, -256, 110670, 343743)" gradientUnits="userSpaceOnUse">
      <stop offset="0" stop-color="#00c875"/>
      <stop offset="1" stop-color="#00e988"/>
    </linearGradient>
  </defs>
  <g id="图层_2" data-name="图层 2">
    <g id="图层_1-2" data-name="图层 1">
      <path id="路径" d="M206,0a50,50,0,0,1,50,50V206a50,50,0,0,1-50,50H50A50,50,0,0,1,0,206V50A50,50,0,0,1,50,0Z" style="fill-rule: evenodd;fill: url(#未命名的渐变)"/>
      <g id="编组-2">
        <path id="形状结合" d="M128,36A92,92,0,1,1,74.044,202.511L39.156,216.9l14.553-34.639A92,92,0,0,1,128,36Zm49.76,105.745a10.074,10.074,0,0,0-13.62-4.175h0l-29.784,15.8a10.071,10.071,0,0,0,.333,17.963h0l29.786,14.415a10.073,10.073,0,1,0,8.774-18.135h0l-11.9-5.759,12.236-6.494A10.07,10.07,0,0,0,177.761,141.745Zm-90.616-72.5a10.076,10.076,0,0,0-4.967,18.843l.252.137,49.077,25.956L82.73,137.926a10.069,10.069,0,0,0-4.768,13.2l.122.26a10.069,10.069,0,0,0,8.759,5.661l.3,0a10.025,10.025,0,0,0,4.045-.852l.356-.165,66.618-32.432a10.078,10.078,0,0,0,5.653-8.573l.011-.315a10.071,10.071,0,0,0-5.087-8.92l-.276-.152L91.847,70.415a10.038,10.038,0,0,0-4.335-1.167Z" style="fill: #fff;fill-rule: evenodd"/>
      </g>
    </g>
  </g>
</svg>
