<?xml version="1.0" encoding="utf-8"?>
<!-- Generator: Adobe Illustrator 24.1.3, SVG Export Plug-In . SVG Version: 6.00 Build 0)  -->
<svg version="1.1" id="图层_1" xmlns="http://www.w3.org/2000/svg" xmlns:xlink="http://www.w3.org/1999/xlink" x="0px" y="0px"
	 viewBox="0 0 24 24" style="enable-background:new 0 0 24 24;" xml:space="preserve">
<style type="text/css">
	.st0{fill:none;}
	.st1{fill-rule:evenodd;clip-rule:evenodd;fill:#BFBFBF;}
</style>
<rect id="矩形" class="st0" width="24" height="24"/>
<g id="编组" transform="translate(2.000000, 4.000000)">
	<path id="形状结合" class="st1" d="M15.5,4l4.2,3.4c0.4,0.3,0.5,0.9,0.1,1.3l-0.1,0.1l-4.4,3.5C13,14,9.9,14.5,7.2,13.5l1-1.2
		c2,0.5,4.1,0.2,5.8-1l0.2-0.2l4-3.1l-3.6-2.9L15.5,4z M14.3,3.1l-1,1.1C11,3,8.1,3.1,6,4.7L5.8,4.8L1.8,8l4,3.1
		c0.3,0.2,0.6,0.4,0.9,0.6l-1,1.1c-0.3-0.2-0.7-0.4-1-0.7L0.4,8.7c-0.4-0.3-0.5-0.9-0.1-1.3l0.1-0.1l4.4-3.5
		C7.4,1.7,11.3,1.4,14.3,3.1z M13.5,8c0,1.9-1.6,3.5-3.5,3.5c-0.3,0-0.6,0-1-0.1l1.2-1.4c1-0.1,1.7-1,1.7-2l0,0l1.2-1.4
		C13.4,7,13.5,7.5,13.5,8z M10,4.5c0.9,0,1.7,0.3,2.3,0.9l-1,1.1C11,6.2,10.5,6,10,6C8.9,6,8,6.9,8,8c0,0.6,0.3,1.1,0.7,1.5l-1,1.1
		C7,10,6.5,9.1,6.5,8C6.5,6.1,8.1,4.5,10,4.5z"/>
	<path id="矩形_1_" class="st1" d="M16.5,0.5c0.3,0.3,0.3,0.8,0,1.1l-12,13.8c-0.3,0.3-0.7,0.3-1,0.1c0,0,0,0,0,0
		c-0.3-0.3-0.3-0.8,0-1.1l12-13.8C15.7,0.3,16.2,0.2,16.5,0.5C16.5,0.5,16.5,0.5,16.5,0.5z"/>
</g>
</svg>
