<?xml version="1.0" encoding="utf-8"?>
<!-- Generator: Adobe Illustrator 24.1.3, SVG Export Plug-In . SVG Version: 6.00 Build 0)  -->
<svg version="1.1" id="图层_1" xmlns="http://www.w3.org/2000/svg" xmlns:xlink="http://www.w3.org/1999/xlink" x="0px" y="0px"
	 viewBox="0 0 24 24" style="enable-background:new 0 0 24 24;" xml:space="preserve">
<style type="text/css">
	.st0{filter:url(#Adobe_OpacityMaskFilter);}
	.st1{fill-rule:evenodd;clip-rule:evenodd;fill:#FFFFFF;}
	.st2{mask:url(#mask-2_1_);fill:#BFBFBF;}
</style>
<g id="蒙版">
</g>
<defs>
	<filter id="Adobe_OpacityMaskFilter" filterUnits="userSpaceOnUse" x="2" y="6" width="20" height="12">
		<feColorMatrix  type="matrix" values="1 0 0 0 0  0 1 0 0 0  0 0 1 0 0  0 0 0 1 0"/>
	</filter>
</defs>
<mask maskUnits="userSpaceOnUse" x="2" y="6" width="20" height="12" id="mask-2_1_">
	<g class="st0">
		<rect id="path-1_1_" class="st1" width="24" height="24"/>
	</g>
</mask>
<path id="形状结合" class="st2" d="M17.3,7.8l4.4,3.5c0.4,0.3,0.5,0.9,0.1,1.3l-0.1,0.1l-4.4,3.5c-3,2.4-7.5,2.4-10.5,0
	l-4.4-3.5c-0.4-0.3-0.5-0.9-0.1-1.3l0.1-0.1l4.4-3.5C9.7,5.4,14.3,5.4,17.3,7.8z M8,8.7L7.8,8.8l-4,3.2l4,3.1
	c2.3,1.8,5.8,1.9,8.2,0.2l0.2-0.2l4-3.1l-4-3.2C13.9,7,10.4,6.9,8,8.7z M12,8.5c1.9,0,3.5,1.6,3.5,3.5s-1.6,3.5-3.5,3.5
	c-0.9,0-1.7-0.3-2.3-0.9l-0.1,0C8.9,13.9,8.5,13,8.5,12c0-1,0.4-1.9,1.1-2.5C10.2,8.9,11,8.5,12,8.5z M12,10c-1.1,0-2,0.9-2,2
	s0.9,2,2,2s2-0.9,2-2S13.1,10,12,10z"/>
</svg>
