<?xml version="1.0" encoding="UTF-8"?>
<svg width="24px" height="24px" viewBox="0 0 24 24" version="1.1" xmlns="http://www.w3.org/2000/svg" xmlns:xlink="http://www.w3.org/1999/xlink">
    <title>Icon/Popover/Add Contact</title>
    <defs>
        <rect id="path-1" x="0" y="0" width="24" height="24"></rect>
    </defs>
    <g id="页面-1" stroke="none" stroke-width="1" fill="none" fill-rule="evenodd">
        <g id="画板备份-10" transform="translate(-984.000000, -16.000000)">
            <g id="编组-2备份-4" transform="translate(354.000000, 0.000000)">
                <g id="Icon/Popover/Add-Contact" transform="translate(630.000000, 16.000000)">
                    <mask id="mask-2" fill="white">
                        <use xlink:href="#path-1"></use>
                    </mask>
                    <g id="Background"></g>
                    <rect id="矩形" mask="url(#mask-2)" x="16.5" y="8.5" width="6" height="6"></rect>
                    <path d="M14.5,13 C16.9852814,13 19,15.0147186 19,17.5 L19,19 C19,20.6568542 17.6568542,22 16,22 L5,22 C3.34314575,22 2,20.6568542 2,19 L2,17.5 C2,15.0147186 4.01471863,13 6.5,13 L14.5,13 Z M19.5,8.5 C19.8796958,8.5 20.193491,8.78215388 20.2431534,9.14822944 L20.25,9.25 L20.25,10.75 L21.75,10.75 C22.1642136,10.75 22.5,11.0857864 22.5,11.5 C22.5,11.8796958 22.2178461,12.193491 21.8517706,12.2431534 L21.75,12.25 L20.25,12.25 L20.25,13.75 C20.25,14.1642136 19.9142136,14.5 19.5,14.5 C19.1203042,14.5 18.806509,14.2178461 18.7568466,13.8517706 L18.75,13.75 L18.75,12.25 L17.25,12.25 C16.8357864,12.25 16.5,11.9142136 16.5,11.5 C16.5,11.1203042 16.7821539,10.806509 17.1482294,10.7568466 L17.25,10.75 L18.75,10.75 L18.75,9.25 C18.75,8.83578644 19.0857864,8.5 19.5,8.5 Z M10.5,2 C13.2614237,2 15.5,4.23857625 15.5,7 C15.5,9.76142375 13.2614237,12 10.5,12 C7.73857625,12 5.5,9.76142375 5.5,7 C5.5,4.23857625 7.73857625,2 10.5,2 Z" id="形状结合" fill="#C1C6CD" fill-rule="nonzero" mask="url(#mask-2)"></path>
                </g>
            </g>
        </g>
    </g>
</svg>