<?xml version="1.0" encoding="UTF-8"?>
<svg width="36px" height="36px" viewBox="0 0 36 36" version="1.1" xmlns="http://www.w3.org/2000/svg" xmlns:xlink="http://www.w3.org/1999/xlink">
    <title>Icon/List/Contacts/My Contacts</title>
    <g id="页面-1" stroke="none" stroke-width="1" fill="none" fill-rule="evenodd">
        <g id="画板备份-18" transform="translate(-80.000000, -64.000000)">
            <g id="编组-2备份-2" transform="translate(68.000000, 56.000000)">
                <g id="Icon/List/Contacts/My-Contacts" transform="translate(12.000000, 8.000000)">
                    <rect id="矩形" fill="#FBB119" x="0" y="0" width="36" height="36" rx="18"></rect>
                    <path d="M22.5,18.45 C24.9852814,18.45 27,20.4647186 27,22.95 C27,25.4352814 24.9852814,27.45 22.5,27.45 C20.0147186,27.45 18,25.4352814 18,22.95 C18,20.4647186 20.0147186,18.45 22.5,18.45 Z M18.2788693,18.899735 C17.2700279,19.9508652 16.65,21.3780249 16.65,22.95 C16.65,24.5224746 17.270422,25.9500418 18.2798312,27.001267 L12.225,27 C10.5681458,27 9.225,25.6568542 9.225,24 L9.225,22.95 C9.225,20.7132468 11.0382468,18.9 13.275,18.9 L18.2788693,18.899735 Z M22.5,19.8 C22.161098,19.8 21.8805302,20.0497585 21.8323187,20.3752534 L21.825,20.475 L21.825,22.95 L21.831162,23.0415935 C21.8713885,23.3381147 22.1041679,23.573457 22.3994399,23.6175603 L22.5,23.625 L24.975,23.625 L25.0665935,23.618838 C25.3631147,23.5786115 25.598457,23.3458321 25.6425603,23.0505601 L25.65,22.95 L25.643838,22.8584065 C25.6036115,22.5618853 25.3708321,22.326543 25.0755601,22.2824397 L24.975,22.275 L23.175,22.275 L23.175,20.475 L23.168838,20.3834065 C23.1241419,20.0539385 22.8417262,19.8 22.5,19.8 Z M16.875,9 C19.3602814,9 21.375,11.0147186 21.375,13.5 C21.375,15.9852814 19.3602814,18 16.875,18 C14.3897186,18 12.375,15.9852814 12.375,13.5 C12.375,11.0147186 14.3897186,9 16.875,9 Z" id="形状结合" fill="#FFFFFF"></path>
                </g>
            </g>
        </g>
    </g>
</svg>