<?xml version="1.0" encoding="UTF-8"?>
<svg width="20px" height="20px" viewBox="0 0 20 20" version="1.1" xmlns="http://www.w3.org/2000/svg" xmlns:xlink="http://www.w3.org/1999/xlink">
    <title>编组2@1x</title>
    <g id="页面-1" stroke="none" stroke-width="1" fill="none" fill-rule="evenodd">
        <g id="画板备份-17" transform="translate(-845.000000, -239.000000)">
            <g id="编组-3" transform="translate(811.000000, 234.000000)">
                <g id="编组2" transform="translate(34.000000, 5.000000)">
                    <rect id="矩形" x="0" y="0" width="20" height="20"></rect>
                    <path d="M10.0000594,2.08333333 C14.3726374,2.08333333 17.9166667,5.62738924 17.9166667,10 C17.9166667,14.3718192 14.3722403,17.9166667 10.0000594,17.9166667 C8.5909775,17.9166667 7.23674717,17.546957 6.04864005,16.8607461 L5.81326657,16.7192997 L5.6069697,16.5853361 L3.08199511,17.6275801 C2.68374178,17.7918676 2.28606569,17.4514325 2.33972248,17.0599748 L2.35518224,16.9860894 L2.37852119,16.9195112 L3.42988636,14.4161532 L3.2960778,14.2118511 C2.60816558,13.119975 2.19559226,11.8726407 2.10319756,10.5642177 L2.08831573,10.2829407 L2.08333333,10 C2.08333333,5.62736951 5.62738235,2.08333333 10.0000594,2.08333333 Z" id="路径" fill="#333333"></path>
                </g>
            </g>
        </g>
    </g>
</svg>