<?xml version="1.0" encoding="UTF-8"?>
<svg width="20px" height="20px" viewBox="0 0 20 20" version="1.1" xmlns="http://www.w3.org/2000/svg" xmlns:xlink="http://www.w3.org/1999/xlink">
    <title>Icon/Message/Video</title>
    <defs>
        <rect id="path-1" x="0" y="0" width="20" height="20"></rect>
    </defs>
    <g id="页面-1" stroke="none" stroke-width="1" fill="none" fill-rule="evenodd">
        <g id="画板备份" transform="translate(-946.000000, -239.000000)">
            <g id="编组-5" transform="translate(912.000000, 234.000000)">
                <g id="Icon/Message/Video" transform="translate(34.000000, 5.000000)">
                    <mask id="mask-2" fill="white">
                        <use xlink:href="#path-1"></use>
                    </mask>
                    <g id="Background"></g>
                    <path d="M11.9772727,5 C13.0818422,5 13.9772727,5.8954305 13.9772727,7 L13.9772727,13 C13.9772727,14.1045695 13.0818422,15 11.9772727,15 L3.25,15 C2.1454305,15 1.25,14.1045695 1.25,13 L1.25,7 C1.25,5.8954305 2.1454305,5 3.25,5 L11.9772727,5 Z M18.5666144,5.91274817 C18.6551581,6.00571899 18.7045455,6.12918749 18.7045455,6.25757576 L18.7045455,13.7424242 C18.7045455,14.0185666 18.4806878,14.2424242 18.2045455,14.2424242 C18.0761572,14.2424242 17.9526887,14.1930368 17.8597179,14.1044932 L15.1967085,11.5682938 C14.9985286,11.3795511 14.8863636,11.1178328 14.8863636,10.8441558 L14.8863636,9.15584416 C14.8863636,8.88216722 14.9985286,8.62044894 15.1967085,8.43170622 L17.8597179,5.89550679 C18.059683,5.70506377 18.3761714,5.712783 18.5666144,5.91274817 Z" id="形状结合" fill="#333333" fill-rule="nonzero" mask="url(#mask-2)"></path>
                </g>
            </g>
        </g>
    </g>
</svg>