<?xml version="1.0" encoding="UTF-8"?>
<svg width="36px" height="36px" viewBox="0 0 36 36" version="1.1" xmlns="http://www.w3.org/2000/svg" xmlns:xlink="http://www.w3.org/1999/xlink">
    <title>Icon/List/Contacts/My Contacts</title>
    <g id="页面-1" stroke="none" stroke-width="1" fill="none" fill-rule="evenodd">
        <g id="画板备份-18" transform="translate(-80.000000, -116.000000)">
            <g id="编组-2备份-3" transform="translate(68.000000, 108.000000)">
                <g id="Icon/List/Contacts/My-Contacts" transform="translate(12.000000, 8.000000)">
                    <rect id="矩形" fill="#00C975" x="0" y="0" width="36" height="36" rx="18"></rect>
                    <path d="M21.6,18.9 C23.8367532,18.9 25.65,20.7132468 25.65,22.95 L25.65,24 C25.65,25.6568542 24.3068542,27 22.65,27 L13.35,27 C11.6931458,27 10.35,25.6568542 10.35,24 L10.35,22.95 C10.35,20.7132468 12.1632468,18.9 14.4,18.9 L21.6,18.9 Z M18,9 C20.4852814,9 22.5,11.0147186 22.5,13.5 C22.5,15.9852814 20.4852814,18 18,18 C15.5147186,18 13.5,15.9852814 13.5,13.5 C13.5,11.0147186 15.5147186,9 18,9 Z" id="形状结合" fill="#FFFFFF"></path>
                </g>
            </g>
        </g>
    </g>
</svg>