<?xml version="1.0" encoding="UTF-8"?>
<svg width="20px" height="20px" viewBox="0 0 20 20" version="1.1" xmlns="http://www.w3.org/2000/svg" xmlns:xlink="http://www.w3.org/1999/xlink">
    <title>Icon/Message/Audio</title>
    <defs>
        <rect id="path-1" x="0" y="0" width="20" height="20"></rect>
    </defs>
    <g id="页面-1" stroke="none" stroke-width="1" fill="none" fill-rule="evenodd">
        <g id="画板备份" transform="translate(-844.000000, -239.000000)">
            <g id="编组-4" transform="translate(810.000000, 234.000000)">
                <g id="Icon/Message/Audio" transform="translate(34.000000, 5.000000)">
                    <mask id="mask-2" fill="white">
                        <use xlink:href="#path-1"></use>
                    </mask>
                    <g id="Background"></g>
                    <path d="M15.6947582,14.6689242 C15.9767078,14.9544522 16.4456735,15.4342588 16.433564,15.9883799 C16.4238007,16.3674983 16.2074947,16.7464922 15.7701399,17.1495437 C15.6607507,17.2550882 14.691057,18.15 13.1381393,18.15 C12.7128183,18.15 12.2753625,18.0827832 11.840379,17.9532808 C11.3810252,17.8165063 10.9144057,17.6054173 10.4550771,17.3247456 C8.64210789,16.2642699 7.23987788,14.9016301 5.9105824,12.9008172 C3.62367751,9.465391 3.55805914,6.52414119 3.5677972,5.96994539 C3.572641,3.41013012 5.73073105,2.40491712 5.97620077,2.29693199 C6.31392977,2.14098115 6.61046123,2.06666667 6.88264754,2.06666667 C7.01390951,2.06666667 7.13777963,2.08350199 7.25445974,2.11948873 C7.49266376,2.19138749 7.82317751,2.37612773 8.04432731,2.8511527 C8.3481497,3.4965232 8.63481696,4.42012475 8.82925017,5.38701001 C9.03589379,6.38980729 8.4647289,6.67289468 7.91306534,6.94392838 L7.89116733,6.95356635 C7.89116733,6.95356635 6.91665506,7.35417722 6.74409464,7.4261507 C6.57645371,7.49570846 6.48649019,7.68288931 6.54481763,7.85555095 C6.93852785,9.03110949 7.53878078,10.2523177 8.28003375,11.3845676 C9.01157388,12.4977906 9.87916932,13.5245957 10.7905356,14.3570474 C10.8560783,14.4146262 10.9387508,14.4481972 11.0286387,14.4481972 L11.0578024,14.4458562 C11.1550568,14.4386589 11.2449447,14.3906184 11.3057445,14.3138633 C11.4539597,14.1267821 11.6824005,13.8556488 11.9205793,13.6277244 C12.3749884,13.2007399 12.7881999,12.9944076 13.1794378,12.9944076 C13.2863546,12.9944076 13.3932714,13.0088023 13.4953697,13.0399327 C13.5974679,13.0687221 13.7577927,13.1526995 13.9352978,13.2702977 C13.9790434,13.2990871 14.9486614,13.9132525 15.6947582,14.6689242 Z" id="路径" fill="#333333" fill-rule="nonzero" mask="url(#mask-2)" transform="translate(10.000461, 10.108333) rotate(-10.000000) translate(-10.000461, -10.108333) "></path>
                </g>
            </g>
        </g>
    </g>
</svg>