<?xml version="1.0" encoding="UTF-8"?>
<svg width="36px" height="36px" viewBox="0 0 36 36" version="1.1" xmlns="http://www.w3.org/2000/svg" xmlns:xlink="http://www.w3.org/1999/xlink">
    <title>Icon/List/Contacts/Organization</title>
    <g id="页面-1" stroke="none" stroke-width="1" fill="none" fill-rule="evenodd">
        <g id="画板备份-18" transform="translate(-80.000000, -168.000000)">
            <g id="编组-2备份-11" transform="translate(68.000000, 160.000000)">
                <g id="Icon/List/Contacts/Organization" transform="translate(12.000000, 8.000000)">
                    <rect id="矩形" fill="#2A83F7" x="0" y="0" width="36" height="36" rx="18"></rect>
                    <path d="M19.27,9 C20.5568235,9 21.6,10.0431765 21.6,11.33 L21.6,13.87 C21.6,15.1568235 20.5568235,16.2 19.27,16.2 L18.674,16.2 L18.674,18.225 L23.4,18.225 C24.7162787,18.225 25.7925639,19.2525341 25.8704831,20.5492299 L25.875,20.7 L25.874,21.6 L25.9,21.6 C27.0045695,21.6 27.9,22.4954305 27.9,23.6 L27.9,25 C27.9,26.1045695 27.0045695,27 25.9,27 L24.5,27 C23.3954305,27 22.5,26.1045695 22.5,25 L22.5,23.6 C22.5,22.4954305 23.3954305,21.6 24.5,21.6 L24.524,21.6 L24.525,20.7 C24.525,20.1175122 24.0823128,19.6384195 23.5150247,19.5808082 L23.4,19.575 L12.6,19.575 C12.0175122,19.575 11.5384195,20.0176872 11.4808082,20.5849753 L11.475,20.7 L11.474,21.6 L11.5,21.6 C12.6045695,21.6 13.5,22.4954305 13.5,23.6 L13.5,25 C13.5,26.1045695 12.6045695,27 11.5,27 L10.1,27 C8.9954305,27 8.1,26.1045695 8.1,25 L8.1,23.6 C8.1,22.4954305 8.9954305,21.6 10.1,21.6 L10.124,21.6 L10.125,20.7 C10.125,19.3837213 11.1525341,18.3074361 12.4492299,18.2295169 L12.6,18.225 L17.324,18.225 L17.324,16.2 L16.73,16.2 C15.4431765,16.2 14.4,15.1568235 14.4,13.87 L14.4,11.33 C14.4,10.0431765 15.4431765,9 16.73,9 L19.27,9 Z M18.7,21.6 C19.8045695,21.6 20.7,22.4954305 20.7,23.6 L20.7,25 C20.7,26.1045695 19.8045695,27 18.7,27 L17.3,27 C16.1954305,27 15.3,26.1045695 15.3,25 L15.3,23.6 C15.3,22.4954305 16.1954305,21.6 17.3,21.6 L18.7,21.6 Z" id="形状结合" fill="#FFFFFF"></path>
                </g>
            </g>
        </g>
    </g>
</svg>