<?xml version="1.0" encoding="UTF-8"?>
<svg width="21px" height="20px" viewBox="0 0 21 20" version="1.1" xmlns="http://www.w3.org/2000/svg" xmlns:xlink="http://www.w3.org/1999/xlink">
    <title>Icon/List/Contacts/Enterprise</title>
    <g id="页面-1" stroke="none" stroke-width="1" fill="none" fill-rule="evenodd">
        <g id="画板备份-15" transform="translate(-94.000000, -224.000000)" fill="#2A83F7">
            <g id="编组-2备份-24" transform="translate(68.000000, 212.000000)">
                <g id="Icon/List/Contacts/Organization" transform="translate(26.000000, 12.000000)">
                    <g id="Icon/List/Contacts/Enterprise" transform="translate(0.400000, 0.400000)">
                        <path d="M11.3088544,1.34394001 C11.4477098,1.62165088 11.52,1.92787701 11.52,2.2383672 L11.52,17.0015039 L12.479,17.0015039 L12.48,7.48486164 C12.48,7.18408613 12.5703852,6.89146971 12.7376762,6.64424335 L12.8276681,6.52458504 C13.3580142,5.8881697 14.3038613,5.8021836 14.9402766,6.33252972 L14.9402766,6.33252972 L17.7002766,8.63252972 C18.0422655,8.91752046 18.24,9.33969188 18.24,9.78486164 L18.24,9.78486164 L18.24,17.0015039 L18.48,17.0022992 C18.877645,17.0022992 19.2,17.3246542 19.2,17.7222992 C19.2,18.0868072 18.9291323,18.3880505 18.5776997,18.4357265 L18.48,18.4422992 L0.72,18.4422992 C0.32235498,18.4422992 0,18.1199442 0,17.7222992 C0,17.3577913 0.270867726,17.0565479 0.622300265,17.008872 L0.72,17.0022992 L0.96,17.0015039 L0.96,5.5183672 C0.96,4.76082308 1.38800475,4.06829685 2.06557281,3.72951282 L8.62557281,0.449512817 C9.6135298,-0.0444656802 10.8148759,0.355983013 11.3088544,1.34394001 Z M7.92,12.9222992 L4.56,12.9222992 L4.46230026,12.928872 C4.11086773,12.9765479 3.84,13.2777913 3.84,13.6422992 C3.84,14.0068072 4.11086773,14.3080505 4.46230026,14.3557265 L4.56,14.3622992 L7.92,14.3622992 L8.01769974,14.3557265 C8.36913227,14.3080505 8.64,14.0068072 8.64,13.6422992 C8.64,13.2446542 8.31764502,12.9222992 7.92,12.9222992 Z M7.92,9.56229922 L4.56,9.56229922 L4.46230026,9.56887197 C4.11086773,9.6165479 3.84,9.91779129 3.84,10.2822992 C3.84,10.6468072 4.11086773,10.9480505 4.46230026,10.9957265 L4.56,11.0022992 L7.92,11.0022992 L8.01769974,10.9957265 C8.36913227,10.9480505 8.64,10.6468072 8.64,10.2822992 C8.64,9.8846542 8.31764502,9.56229922 7.92,9.56229922 Z M7.92,6.20229922 L4.56,6.20229922 L4.46230026,6.20887197 C4.11086773,6.2565479 3.84,6.55779129 3.84,6.92229922 C3.84,7.28680716 4.11086773,7.58805054 4.46230026,7.63572647 L4.56,7.64229922 L7.92,7.64229922 L8.01769974,7.63572647 C8.36913227,7.58805054 8.64,7.28680716 8.64,6.92229922 C8.64,6.5246542 8.31764502,6.20229922 7.92,6.20229922 Z" id="形状结合"></path>
                    </g>
                </g>
            </g>
        </g>
    </g>
</svg>